<?xml version="1.0" encoding="utf-8"?>
<!-- Generator: Adobe Illustrator 26.0.1, SVG Export Plug-In . SVG Version: 6.00 Build 0)  -->
<svg version="1.1" id="svg2" xmlns:svg="http://www.w3.org/2000/svg"
	 xmlns="http://www.w3.org/2000/svg" xmlns:xlink="http://www.w3.org/1999/xlink" x="0px" y="0px" viewBox="0 0 751 751"
	 style="enable-background:new 0 0 751 751;" xml:space="preserve">
<style type="text/css">
	.st0{fill:#7945FC;}
</style>
<g id="g8">
	<path id="path416" class="st0" d="M362.3,343.5c-5.1-3-10.2-6.1-11.2-6.7c-1-0.7-6.1-3.6-11.3-6.6c-5.2-3-10.4-5.9-11.5-6.6
		c-1.2-0.7-10.4-6.1-20.4-11.9s-20.4-11.9-23-13.5s-5.8-3.4-7.1-4.1s-4.6-2.5-7.1-4.1c-6.3-3.9-24.9-15-28-16.7
		c-1.4-0.8-4.3-2.5-6.5-3.8c-13.2-7.9-26.9-15.6-27.9-15.6c-0.6,0-1.3-0.4-1.6-1c-0.2-0.5-8.2-5.5-17.7-11
		c-9.5-5.5-19.4-11.3-21.9-12.8c-2.5-1.6-5.7-3.4-7.1-4.1c-2.6-1.3-4.6-2.5-22.2-13c-5.7-3.4-12.9-7.6-16.1-9.2
		c-3.1-1.7-6.5-3.7-7.5-4.5c-1-0.8-5.7-3.6-10.3-6.2c-4.7-2.6-8.5-4.9-8.5-5.2s1.8-1.4,4.1-2.4c2.2-1,5.8-2.9,7.8-4.2
		c2.1-1.3,5.9-3.5,8.5-5s6.8-3.9,9.4-5.4c2.6-1.5,6.4-3.7,8.5-5c2.1-1.3,6.3-3.7,9.4-5.3l5.7-3l5,3c2.8,1.6,9.8,5.7,15.7,9
		c5.9,3.3,11.6,6.6,12.8,7.3c1.2,0.7,7.7,4.5,14.4,8.4c6.8,4,13.7,8,15.4,9.1c1.7,1,8.2,4.8,14.4,8.3s13.1,7.5,15.4,8.8
		c2.2,1.3,6.2,3.6,8.8,5c2.6,1.5,6.4,3.7,8.5,5c2.1,1.3,8.6,5,14.4,8.3c5.9,3.3,11.6,6.6,12.8,7.3c1.2,0.7,3.7,2.1,5.6,3.2
		s5.8,3.3,8.6,4.9s6.4,3.7,8.2,4.7s5.2,3,7.7,4.5c2.5,1.5,9.9,5.7,16.3,9.3s12.5,7.1,13.6,7.8c1,0.6,7.9,4.6,15.2,8.8l13.4,7.6
		l4.5-2.6c2.5-1.4,6.6-3.8,9.2-5.2c2.6-1.5,7.2-4.1,10.3-5.8c31.7-17.5,33.9-19,31.1-21.3c-0.9-0.7-9.8-5.9-19.8-11.5
		c-10-5.6-19-10.8-20.1-11.4s-7.2-4.3-13.8-8.1c-6.6-3.8-13.3-7.8-15-8.8s-8.2-4.8-14.4-8.3s-13.1-7.5-15.4-8.8
		c-2.2-1.3-6.1-3.5-8.5-4.9s-6.5-3.7-9.1-5.2c-2.6-1.5-5.8-3.3-7.2-4.1c-1.4-0.8-3.9-2.3-5.6-3.4c-1.7-1.1-7.9-4.6-13.8-7.9
		c-5.9-3.2-12.4-6.9-14.4-8.1s-5.9-3.5-8.5-5c-2.6-1.5-6.7-3.8-9.1-5.2c33.6,19.2-91.5-52.3-17.6-10l-8.8-5
		c-2.4-1.4-6.5-3.7-9.1-5.2c-2.6-1.5-6.3-3.5-8.2-4.5c-3.3-1.7-3.4-1.9-1.3-3.5c1.2-0.9,2.6-1.7,3-1.8c0.4,0,5.8-3.1,11.9-6.9
		c6.1-3.8,12.3-7.5,13.7-8.1c1.4-0.7,4.8-2.6,7.5-4.4c2.8-1.7,7-4.3,9.4-5.7c2.4-1.4,6.6-4,9.4-5.7s6.1-3.7,7.5-4.3
		c1.4-0.7,4.6-2.5,7.1-4.1c6.6-4.1,28.9-17.3,36.7-21.7c3.7-2.1,7.4-4.4,8.4-5.1c1-0.8,5.4-3.5,9.9-6c4.5-2.5,10.4-6,13.2-7.7
		c2.8-1.7,8.5-5.1,12.8-7.6c4.3-2.5,8.1-5,8.5-5.6c1.2-1.9,5.6-1.3,9.1,1.2c1.8,1.3,4.2,2.7,5.2,3.1s4.1,2.2,6.9,3.9
		c2.8,1.7,9.8,5.8,15.7,9.1c5.9,3.3,11.6,6.6,12.8,7.3c3.8,2.2,52.8,30.4,57,32.8c9.2,5.3,58.5,33.8,62.2,36
		c2.2,1.3,7.1,4.1,10.9,6.1c3.8,2.1,8.4,4.8,10.2,6.1c1.8,1.3,3.7,2.3,4.2,2.3s2.4,1,4.2,2.3s7.8,4.7,13.4,7.7s10.9,6,11.9,6.8
		c1,0.8,3.2,2.2,4.9,3.1c4.6,2.6,11,6.2,15.8,9l8.8,5l8.8,5c2.4,1.4,6.5,3.7,9.1,5.2c2.6,1.5,6,3.4,7.5,4.2c2.2,1.2,2.5,1.8,1.2,2.9
		c-2.5,2.1-33.7,22.8-34.3,22.8c-0.3,0-3.7,2.3-7.5,5.1l-7,5.1l-6.5-3.4c-3.6-1.9-7.3-4.1-8.3-4.8c-1-0.8-3.2-2.1-4.9-3.1
		s-5-2.9-7.5-4.3c-2.5-1.4-5.9-3.4-7.7-4.4c-1.7-1-5.2-3-7.8-4.5c-2.5-1.5-20.2-11.7-39.3-22.8c-19-11-36.1-21-38-22.1
		c-1.9-1.1-5.5-3.2-8.1-4.7c-2.6-1.5-6.7-3.8-9.1-5.2l-8.8-5c-2.4-1.4-6.5-3.7-9.1-5.2c-2.6-1.5-6.2-3.6-8.1-4.7
		c-26.6-15.9-59.8-34.4-61.6-34.3c-1.3,0.1-3,0.7-3.8,1.4c-0.8,0.7-5.1,3.2-9.6,5.6s-12.4,6.7-17.6,9.5c-5.2,2.8-13.5,7.3-18.5,9.8
		s-9.1,5.2-9.1,5.9c0,0.7,18.6,12,41.4,25.1c22.8,13.1,43.2,24.9,45.4,26.2c2.2,1.3,7.1,4.1,10.9,6.1c3.8,2.1,8.3,4.6,10,5.8
		c1.7,1.1,4.3,2.6,5.6,3.4c1.4,0.8,4.8,2.7,7.5,4.3c2.8,1.6,6.4,3.7,8.2,4.7c1.7,1,5.2,3,7.7,4.5c2.5,1.5,9.9,5.7,16.3,9.3
		c6.4,3.6,12.5,7.1,13.6,7.8c12.1,7.2,30.3,17.6,30.9,17.6c0.5,0,1.7,0.8,2.8,1.7s5.1,3.3,8.9,5.3c3.8,2,8.2,4.6,9.8,5.7l2.9,2.1
		l-5.4,3.1c-37.6,21.7-158.9,90.8-160.3,91.4C372.4,348.7,367.7,346.7,362.3,343.5L362.3,343.5z"/>
	<g id="XMLID_00000014596046317428661800000011417099873152794260_">
		<g>
			<path class="st0" d="M680.9,498.3v64.8l-7.8,4.2c-4.3,2.3-8.7,4.9-9.8,5.9c-1.1,1-2.3,1.7-2.6,1.7c-0.6,0-17.7,9.5-28.4,15.9
				c-2.5,1.5-6,3.5-7.7,4.5c-1.7,1-5.2,3-7.8,4.5c-2.6,1.5-6.7,3.8-9.1,5.2l-8.8,5l-8.8,5c-2.4,1.4-6.5,3.7-9.1,5.2
				c-2.6,1.5-6.4,3.7-8.5,5c-2.1,1.2-8.6,5-14.4,8.3c-5.9,3.3-11.8,6.7-13.2,7.5c-1.4,0.9-3.9,2.2-5.6,3.1c-1.7,0.8-4,2.2-5,3
				c-1,0.8-7,4.2-13.2,7.5c-6.2,3.3-12.1,6.6-13.2,7.4s-3.2,2.1-4.9,3.1c-4.6,2.6-11,6.2-15.8,9l-8.8,5c-2.4,1.4-6.5,3.7-9.1,5.2
				c-2.6,1.5-5.3,3.1-6,3.6c-0.7,0.5-4.4,2.6-8.2,4.7c-3.8,2.1-8.9,5-11.3,6.4c-2.4,1.5-5.8,3.4-7.5,4.2c-1.7,0.8-4,2.2-5,3
				s-5,3.1-8.8,5c-3.8,2-8.3,4.5-10,5.6c-1.7,1.1-4.1,2.4-5.3,2.8c-2.1,0.8-2.2-7.4-2.2-160l0-160.8l17.8-10
				c9.8-5.5,20.9-11.8,24.7-14c14.3-8.1,38.4-21.8,40.2-23c1-0.7,8.1-4.7,15.7-9c7.6-4.3,14-8.3,14.2-8.8c0.2-0.5,1-1,1.6-1
				s18.4-9.9,39.5-22c21.1-12.1,38.7-21.9,39.1-21.9c0.4,0,1.6-0.8,2.7-1.7c1.1-0.9,5.6-3.7,10.1-6.1c8.8-4.7,16-8.8,22-12.4
				c2.1-1.3,5.7-3.4,8.2-4.6c2.4-1.3,6.5-3.6,9.1-5c2.6-1.5,6.7-3.9,9.1-5.2l8.8-5c2.4-1.4,6.4-3.6,8.8-5l4.4-2.5V321v79.6l-9.4,8.9
				c-5.2,4.9-9.4,9.5-9.4,10.1c0,0.7,1.1,1.5,2.5,1.9c1.4,0.4,2.5,1.1,2.5,1.6c0,0.5,3.1,3,6.9,5.6l6.9,4.8V498.3z M627,531.8v-34.9
				c0-23.3-0.4-34.9-1.3-34.9c-0.7,0-2.8,1-4.7,2.2c-4,2.6-5,3.2-19.1,11.3c-7.9,4.5-84.1,48.4-103.8,59.8c-2,1.1-18.4,10.5-28.3,16
				c-2.2,1.2-5.6,3.2-7.7,4.5l-3.8,2.3l-0.3,35.3c-0.3,34.3-0.3,35.3,2.1,35.3c1.4,0,2.8-0.5,3.1-1.1c0.4-0.6,8.3-5.5,17.7-11
				c9.4-5.4,19.1-11.1,21.7-12.7c2.5-1.5,5.7-3.3,7.1-4c1.4-0.7,4.6-2.6,7.2-4.1s12.9-7.6,23-13.5c10.1-5.9,20.4-11.9,22.9-13.5
				c2.5-1.6,5.7-3.4,7.1-4.1c1.4-0.7,4.6-2.5,7.1-4c2.5-1.6,14.8-8.7,27.3-15.9L627,531.8z M627,401.3v-34.2
				c0-18.8-0.4-34.2-0.8-34.2c-0.7,0-16.4,9-27.8,16c-2.5,1.5-8.2,4.9-12.6,7.5s-9.7,5.8-11.9,7.1c-2.2,1.3-5.1,3-6.5,3.8
				s-7.2,4.2-12.9,7.6c-5.7,3.4-12.1,7.2-14.1,8.4c-2,1.2-5.5,3.3-7.8,4.6c-2.2,1.3-8.2,4.9-13.3,7.8c-5.1,3-10.1,6-11.3,6.7
				c-1.1,0.7-4.3,2.6-7.1,4.1c-2.8,1.5-7.3,4.2-10,5.9c-7.1,4.4-20,12-26.1,15.4c-2.8,1.6-5.6,3.5-6.1,4.4
				c-1.2,1.8-1.4,66.1-0.2,66.1c0.4,0,4.8-2.3,9.7-5.1c4.9-2.8,9.8-5.6,10.8-6.2c1-0.6,12.5-7.2,25.5-14.7
				c13-7.4,25.7-14.8,28.2-16.4c2.5-1.6,5.8-3.4,7.1-4.1c1.4-0.7,4.6-2.5,7.2-4c2.5-1.6,12.9-7.6,23-13.5
				c10.1-5.9,20.4-11.9,23-13.5c2.5-1.6,5.7-3.4,7.1-4c1.4-0.7,4.8-2.6,7.5-4.3c2.8-1.7,8.3-5,12.2-7.2L627,401.3z"/>
		</g>
		<g>
		</g>
	</g>
	<path id="path420" class="st0" d="M332.9,714.7c-5.5-3.1-10.9-6.1-11.9-6.8s-13.9-8.1-28.6-16.6c-14.7-8.5-28.8-16.7-31.3-18.3
		s-5.8-3.4-7.2-4.1s-4.8-2.6-7.5-4.3s-9.8-5.7-15.7-9c-5.9-3.2-12.1-6.8-13.8-7.9c-1.7-1.1-4.3-2.6-5.6-3.4
		c-1.4-0.8-4.6-2.6-7.2-4.1c-2.6-1.5-6.8-3.9-9.4-5.4c-2.6-1.5-6.4-3.7-8.5-5c-2.1-1.3-5.2-3-6.9-3.8c-1.7-0.8-4.5-2.5-6.3-3.6
		c-1.7-1.2-6.1-3.7-9.7-5.7c-3.6-2-8.5-4.7-10.9-6.1c-17.7-10.4-27.2-15.7-28.2-15.7c-0.6,0-1.3-0.4-1.6-1
		c-0.2-0.5-12.1-7.7-26.4-15.8l-26-14.9V403c0-88.2,0.4-160.3,0.8-160.3c0.7,0,16.2,8.4,23,12.5c1,0.6,8.9,5.1,17.6,10
		c8.6,4.9,16.5,9.4,17.6,10c1,0.6,23,13.3,48.9,28.1s48.8,28,51,29.2s11.2,6.4,20.1,11.4c8.8,5,16.9,9.6,18,10.3
		c15.4,9.2,74.5,42.7,75.3,42.7c0.7,0,1.2,63.3,1.2,161.8c0,89-0.1,161.7-0.3,161.7C343.1,720.3,338.4,717.8,332.9,714.7
		L332.9,714.7z"/>
</g>
</svg>
